<svg xmlns="http://www.w3.org/2000/svg" xmlns:xlink="http://www.w3.org/1999/xlink" viewBox="0 0 225.04 59.18"><defs><style>.cls-1{fill:url(#radial-gradient);}.cls-2{fill:url(#radial-gradient-2);}.cls-3{fill:url(#radial-gradient-3);}.cls-4{fill:url(#radial-gradient-4);}.cls-5{fill:url(#radial-gradient-5);}.cls-6{fill:url(#radial-gradient-6);}.cls-7{fill:url(#radial-gradient-7);}</style><radialGradient id="radial-gradient" cx="19.36" cy="27.12" r="23.56" gradientUnits="userSpaceOnUse"><stop offset="0" stop-color="#f0f"/><stop offset="0.17" stop-color="#fd00fb"/><stop offset="0.32" stop-color="#f600f0"/><stop offset="0.48" stop-color="#eb00dd"/><stop offset="0.63" stop-color="#db00c2"/><stop offset="0.78" stop-color="#c600a0"/><stop offset="0.92" stop-color="#ad0076"/><stop offset="1" stop-color="#9e005d"/></radialGradient><radialGradient id="radial-gradient-2" cx="51.39" cy="37.18" r="17.23" xlink:href="#radial-gradient"/><radialGradient id="radial-gradient-3" cx="83.99" cy="37.18" r="15.47" xlink:href="#radial-gradient"/><radialGradient id="radial-gradient-4" cx="115.13" cy="36.75" r="17.73" xlink:href="#radial-gradient"/><radialGradient id="radial-gradient-5" cx="148.14" cy="38.25" r="18.23" xlink:href="#radial-gradient"/><radialGradient id="radial-gradient-6" cx="180.58" cy="37.71" r="17.42" xlink:href="#radial-gradient"/><radialGradient id="radial-gradient-7" cx="207.15" cy="41.07" r="17.89" xlink:href="#radial-gradient"/></defs><g id="Layer_2" data-name="Layer 2"><g id="Layer_1-2" data-name="Layer 1"><path class="cls-1" d="M0,2.88V0H10.08V4H9.36Zm11,47.4,7.76,1.08v2.88H2V51.36l7.76-1.08Zm-4.12-28c0-7.41,0-14.9-.22-22.32h6.92c-.22,7.27-.22,14.76-.22,22.32v4.39c0,7.35,0,14.12.22,21.53H6.62c.22-7.27.22-14.76.22-22.32ZM22,30.16h-5.9V26.85h6.79c7.33,0,10.19-4.68,10.19-11.52s-3.22-11-10.43-11H16.08V1h7.69c9.89,0,15,5.9,15,14.33C38.72,23.39,34.13,30.16,22,30.16Z"/><path class="cls-2" d="M35,37.32c0-11.95,8.14-18.14,16.42-18.14S67.8,25.37,67.8,37.32,59.52,55.18,51.39,55.18,35,49.28,35,37.32Zm26.75-2c0-9.65-2.64-14.9-7.14-14.9s-7.13,5.25-7.13,14.9S50,49.94,54.58,49.94,61.72,45,61.72,35.32Z"/><path class="cls-3" d="M71.86,52.44l-.29-7.84h3.81l2,8.49L73.8,51.44V49a13.72,13.72,0,0,0,8.86,2.95c5.54,0,8.13-2.23,8.13-5.54,0-3.1-2.16-4.69-6.69-6.34l-3.32-1.23c-5.25-1.94-8.71-4.75-8.71-9.64,0-5.19,4.39-10,12.39-10a18.37,18.37,0,0,1,10,2.95l-.29,7.27h-3.6l-1.44-7.27,2.59,1.15v1.87a11.76,11.76,0,0,0-7.35-2.73c-4.46,0-6.76,1.94-6.76,5,0,3.24,1.8,4.46,6.69,6.26l2.16.79c7.2,2.67,9.94,6.05,9.94,10.52,0,5.32-4.68,10.22-13.9,10.22A21.9,21.9,0,0,1,71.86,52.44Z"/><path class="cls-4" d="M119.78,55.58c1.58,0,3-.65,4.89-2l1.66,1.95A10.3,10.3,0,0,1,118,59.18c-5,0-8.07-2.59-8.07-8.14,0-1.72.07-3.24.07-6V27.86h-6v-3.1l8.92-1.15L110,26l2.16-11.67h4.18l-.58,12.6V50.25C115.74,54,117.33,55.58,119.78,55.58Zm3.9-26.47v3.75H110.86V29.11Z"/><path class="cls-5" d="M142.07,40.5c0,6.41,1.87,8.64,5.84,8.64,3.67,0,7.41-1.8,11-5.4h1.51v3.67h-3.67l2.52-1.08c-4.1,5.55-9,7.85-13.68,7.85-5.76,0-9.36-3.46-9.29-13l.22-19L138,23.58l-6.7-1.44V19.62l10.37-.94.72.72-.36,10.08Zm13.14,17.32-1-8.42.22-23.19,1.51,1.37-6.7-1.44V23.62l10.23-.94.72.72L160,33.48V55l-1.73-1.73,6.7,1.44v2.52Z"/><path class="cls-6" d="M172.94,37.12V33.74c0-4-.07-6.19-.21-9.07L167,24V21.5l9.79-4.32,1.08.72.86,9V37.12c0,4.47.08,11.88.22,15.12h-6.19C172.87,49,172.94,41.59,172.94,37.12Zm-5.4,18.6,7.92-1.44h1.44l7.92,1.44v2.52H167.54Zm8.28-28.32h4.11l-1.8.51c2.3-6.7,6.69-10.73,10.94-10.73a6.2,6.2,0,0,1,5.12,2.45c0,3.38-1.3,5.25-4.18,5.25a6.54,6.54,0,0,1-4.32-1.73l-1.95-1.65,3.53-.72c-4.46,2.3-7.05,5.9-8.71,11.45h-2.74Z"/><path class="cls-7" d="M201.06,37.38a78.66,78.66,0,0,1,11.16-3V37a63.64,63.64,0,0,0-9.65,2.88c-6.48,2.52-7.2,5.25-7.2,7.34,0,3.82,2.52,5.33,5.83,5.33,2.52,0,4-.94,8.5-4.18l1.44-1.08,1,1.52-2.09,2.08c-4.32,4.32-6.77,6.34-11.16,6.34-5.26,0-9.65-3-9.65-9C189.25,44.15,191.41,40.91,201.06,37.38Zm11.31,14.24V35.2c0-7.05-2-8.78-6.77-8.78a16.7,16.7,0,0,0-6.48,1.29L202,25.48l-1.87,6.19c-.65,2.09-1.73,3.24-3.67,3.24A2.94,2.94,0,0,1,193.22,32c1.36-5.47,6.69-8.85,13.89-8.85,7.42,0,11,3.38,11,12.45V50.9c0,3.24,1,4.39,2.66,4.39a3.57,3.57,0,0,0,2.81-1.58L225,55.29C223.31,58,221.37,59,218.92,59,215,59,212.37,56.08,212.37,51.62Z"/></g></g></svg>